<svg xmlns="http://www.w3.org/2000/svg" viewBox="0 0 900 620">
<defs><linearGradient id="bg" x1="0" y1="0" x2="1" y2="1"><stop offset="0" stop-color="#020617"/><stop offset=".55" stop-color="#082f49"/><stop offset="1" stop-color="#0f172a"/></linearGradient><linearGradient id="a" x1="0" x2="1"><stop offset="0" stop-color="#22c55e"/><stop offset="1" stop-color="#8b5cf6"/></linearGradient><filter id="gl"><feGaussianBlur stdDeviation="12" result="b"/><feMerge><feMergeNode in="b"/><feMergeNode in="SourceGraphic"/></feMerge></filter></defs>
<rect width="900" height="620" fill="url(#bg)"/>
<circle cx="790" cy="120" r="130" fill="#22c55e" opacity=".12" filter="url(#gl)"/><circle cx="85" cy="520" r="170" fill="#2563eb" opacity=".10"/>
<path d="M0 470 C180 410 260 540 430 480 C570 430 650 360 900 410 L900 620 L0 620Z" fill="#22c55e" opacity=".08"/>
<rect x="50" y="45" width="800" height="530" rx="36" fill="#020617" opacity=".55" stroke="#22c55e" stroke-opacity=".45"/>
<text x="72" y="95" font-size="28" fill="#22c55e" font-family="Sora,Arial" font-weight="800">VSL & ADS FRAMEWORK</text>
<text x="72" y="128" font-size="20" fill="#bfdbfe" font-family="Inter,Arial">Built around hooks, retention and conversion</text>
<g><circle cx="88" cy="135" r="7" fill="#22c55e"/><text x="108" y="142" font-size="25" fill="#dbeafe" font-family="Inter,Arial">3-second hook strategy</text></g><g><circle cx="88" cy="181" r="7" fill="#22c55e"/><text x="108" y="188" font-size="25" fill="#dbeafe" font-family="Inter,Arial">Pain-point storytelling</text></g><g><circle cx="88" cy="227" r="7" fill="#22c55e"/><text x="108" y="234" font-size="25" fill="#dbeafe" font-family="Inter,Arial">B-roll + subtitles + CTA</text></g><g><circle cx="88" cy="273" r="7" fill="#22c55e"/><text x="108" y="280" font-size="25" fill="#dbeafe" font-family="Inter,Arial">Performance iteration</text></g>
<g transform="translate(660 390)"><rect width="130" height="130" rx="28" fill="url(#a)" opacity=".18"/><path d="M35 80 L58 55 L75 70 L102 37" fill="none" stroke="#22c55e" stroke-width="10" stroke-linecap="round" stroke-linejoin="round"/><circle cx="37" cy="83" r="8" fill="#e0f2fe"/><circle cx="104" cy="36" r="8" fill="#e0f2fe"/></g>
</svg>